<?xml version="1.0" standalone="no"?>
<!DOCTYPE svg PUBLIC "-//W3C//DTD SVG 20010904//EN"
 "http://www.w3.org/TR/2001/REC-SVG-20010904/DTD/svg10.dtd">
<svg version="1.0" xmlns="http://www.w3.org/2000/svg"
 width="499.000000pt" height="499.000000pt" viewBox="0 0 499.000000 499.000000"
 preserveAspectRatio="xMidYMid meet">

<g transform="translate(0.000000,499.000000) scale(0.100000,-0.100000)"
fill="#000000" stroke="none">
<path d="M0 2495 l0 -2495 2495 0 2495 0 0 2495 0 2495 -2495 0 -2495 0 0
-2495z m1120 135 l0 -730 -135 0 -135 0 0 25 c0 30 -1 30 -70 4 -84 -32 -212
-24 -301 19 -127 61 -230 209 -248 357 -43 354 258 628 564 514 28 -11 51 -19
53 -19 7 0 0 86 -14 164 -31 178 -87 312 -144 341 -29 15 -38 34 -23 48 3 4
107 7 230 7 l223 0 0 -730z m1629 11 c114 -35 201 -139 201 -238 0 -24 -3 -43
-7 -43 -4 0 -42 10 -85 23 -70 19 -78 24 -73 42 24 74 12 110 -48 139 -78 36
-177 10 -210 -57 -16 -32 -17 -39 -3 -70 21 -51 54 -68 148 -78 165 -18 267
-99 276 -218 5 -73 -10 -123 -54 -171 -73 -81 -233 -113 -346 -70 -69 26 -145
92 -176 152 -22 45 -41 138 -28 138 9 0 164 -38 184 -45 10 -4 10 -9 1 -26
-34 -64 8 -141 85 -157 96 -19 176 27 176 103 0 67 -64 115 -154 115 -60 0
-134 24 -183 60 -49 36 -93 117 -93 171 0 80 53 169 122 205 39 20 126 43 170
43 20 1 64 -8 97 -18z m-824 -16 c50 -18 55 -18 55 0 0 12 19 15 110 15 l110
0 0 -190 c0 -264 34 -418 107 -487 62 -60 55 -63 -143 -63 -167 0 -176 1 -181
20 -6 24 -2 24 -49 4 -22 -9 -66 -16 -105 -16 -109 0 -198 49 -263 145 -139
206 -48 502 177 573 56 17 133 17 182 -1z m1368 -187 c8 -273 33 -362 120
-432 34 -27 48 -31 113 -34 l74 -4 0 336 0 336 105 0 105 0 0 -395 0 -395
-105 0 -105 0 0 25 c0 24 -2 25 -67 25 -143 1 -270 45 -344 122 -67 69 -88
122 -118 293 -24 138 -54 221 -98 262 -62 59 -54 63 141 63 l173 0 6 -202z
m947 186 c0 -11 5 -14 17 -9 98 37 236 31 329 -15 71 -35 106 -71 143 -150 25
-54 26 -60 29 -302 l3 -248 -89 0 -89 0 -6 243 c-6 279 -15 324 -77 391 -35
37 -43 41 -87 41 -61 0 -97 -24 -128 -85 -35 -70 -45 -151 -45 -382 l0 -208
-104 0 -104 0 -5 223 c-3 172 -8 237 -22 287 -27 100 -62 168 -96 185 -16 9
-29 22 -29 30 0 13 28 15 180 15 159 0 180 -2 180 -16z m-2866 -584 c30 -11
56 -57 56 -100 0 -78 -109 -121 -169 -67 -34 32 -44 64 -31 103 21 62 80 89
144 64z"/>
<path d="M596 2751 c-110 -73 -168 -340 -117 -540 49 -196 148 -279 242 -202
77 63 121 195 122 361 1 126 -21 226 -66 302 -54 90 -121 119 -181 79z"/>
<path d="M1793 2567 c-33 -18 -62 -61 -86 -125 -31 -84 -30 -263 2 -345 26
-67 72 -124 106 -133 56 -14 122 60 151 168 17 67 18 208 0 273 -36 137 -104
201 -173 162z"/>
</g>
</svg>
